<?xml version="1.0" encoding="UTF-8" standalone="no"?>
<svg
   xmlns:dc="http://purl.org/dc/elements/1.1/"
   xmlns:cc="http://creativecommons.org/ns#"
   xmlns:rdf="http://www.w3.org/1999/02/22-rdf-syntax-ns#"
   xmlns:svg="http://www.w3.org/2000/svg"
   xmlns="http://www.w3.org/2000/svg"
   viewBox="0 0 244 98.666664"
   height="98.666664"
   width="244"
   xml:space="preserve"
   id="svg2"
   version="1.1"><metadata
     id="metadata8"><rdf:RDF><cc:Work
         rdf:about=""><dc:format>image/svg+xml</dc:format><dc:type
           rdf:resource="http://purl.org/dc/dcmitype/StillImage" /></cc:Work></rdf:RDF></metadata><defs
     id="defs6" /><g
     transform="matrix(1.3333333,0,0,-1.3333333,0,98.666667)"
     id="g10"><g
       transform="scale(0.1)"
       id="g12"><path
         id="path14"
         style="fill:#25477f;fill-opacity:1;fill-rule:nonzero;stroke:none"
         d="m 164.063,118.105 c 3.203,-4.835 89.609,35.54 83.203,104.219 -6.582,70.586 -32.239,88.059 -32.239,88.059 0,0 -41.961,-14.57 -90.574,-5.266 -37.871,5.813 -48.3397,14.504 -58.3983,16.946 -11.9727,2.91 1.5742,-14.063 11.1914,-21.829 11.0742,-8.957 29.2189,-17.195 47.6289,-20.379 32.996,-5.707 65.73,-5.96 65.73,-5.96 0,0 20.489,-37.04 20.489,-72.274 0,-35.226 -50.215,-78.683 -47.031,-83.516" /><path
         id="path16"
         style="fill:#25477f;fill-opacity:1;fill-rule:nonzero;stroke:none"
         d="m 258.066,342.313 c 0.977,5.082 -6.308,-0.333 -35.246,10.277 -19.031,6.973 -37.293,24.422 -69.195,31.863 -62.4531,14.578 -90.5781,-4.172 -98.6523,-11.64 -2.4922,-2.305 -2.1016,9.218 11.8437,23.449 35.9106,36.609 99.9686,36.187 123.5746,36.187 0,0.317 19.218,56.621 76.582,79.321 24.765,9.746 79.238,7.371 115.73,7.371 37.133,0 72.043,2.675 97.602,-6.426 76.687,-27.317 44.402,-98.574 81.758,-145.34 29.726,-37.207 81.531,-34.375 81.531,-29.941 0,8.004 -50.977,17.832 -63.164,92.683 -8.899,54.473 -21.621,93.176 -83.809,116.903 -25.867,9.882 -75.891,8.418 -113.359,8.418 -37.239,0 -92.364,1.312 -117.891,-9.2 C 203.445,520.742 190.137,469.07 180.676,467.93 167.297,466.34 128.887,465.625 84.3164,444.805 39.7344,423.996 26.6211,400.371 14.1016,371.238 5.625,351.504 -1.99219,313.445 5.42969,310.254 c 7.44141,-3.203 32.61721,29.441 66.54301,42.82 29.6873,11.711 65.1293,13.059 100.9183,-3.531 46.464,-21.543 83.562,-15.648 85.175,-7.23" /><path
         id="path18"
         style="fill:#25477f;fill-opacity:1;fill-rule:nonzero;stroke:none"
         d="m 235.469,503.563 c 0,0 9.961,43.949 9.355,70.714 -0.664,29.27 -3.984,42.696 -12.605,64.036 -6.399,15.859 -12.239,18.105 -8.586,20.007 4.902,2.571 17.773,-0.925 28.867,-9.968 16.68,-13.579 22.891,-19.707 28.535,-26.528 7.012,-8.472 2.617,29.68 -21.055,48.75 -30.839,24.824 -91.191,15.996 -95.632,14.571 -4.465,-1.446 39.468,-34.43 51.14,-81.161 9.055,-36.23 6.614,-107.597 6.614,-107.597 l 13.367,7.176" /><path
         id="path20"
         style="fill:#25477f;fill-opacity:1;fill-rule:nonzero;stroke:none"
         d="m 526.66,503.563 c 0,0 -9.961,43.949 -9.355,70.714 0.683,29.27 3.984,42.696 12.597,64.036 6.407,15.859 12.246,18.105 8.594,20.007 -4.922,2.571 -17.754,-0.925 -28.875,-9.968 -16.672,-13.579 -22.871,-19.707 -28.527,-26.528 -7.012,-8.472 -2.625,29.68 21.074,48.75 30.82,24.824 91.172,15.996 95.625,14.571 4.465,-1.446 -39.492,-34.43 -51.172,-81.161 -9.043,-36.23 -6.582,-107.597 -6.582,-107.597 l -13.379,7.176" /><path
         id="path22"
         style="fill:#25477f;fill-opacity:1;fill-rule:nonzero;stroke:none"
         d="m 381.57,692.313 c 9.739,-1.852 20.93,-8.356 31.977,-18.708 17,-15.937 49.519,-61.816 49.519,-49.042 0,12.761 -11.648,47.175 -29.55,67.48 -12.012,13.621 -35.528,37.605 -51.953,40.059 h -1.133 c -16.426,-2.454 -39.942,-26.438 -51.946,-40.059 -17.91,-20.305 -29.558,-54.719 -29.558,-67.48 0,-12.774 32.519,33.105 49.531,49.042 11.055,10.352 22.227,16.856 31.973,18.708 h 1.14" /><path
         id="path24"
         style="fill:#25477f;fill-opacity:1;fill-rule:nonzero;stroke:none"
         d="m 263.242,473.371 c 0,0 16.524,-13.476 53.242,-8.598 24.563,3.286 32.676,12.524 58.809,5.207 27.422,-7.683 32.578,-40.417 27.715,-38.464 -5.672,2.261 -42.227,20.172 -76.543,12.593 -34.356,-7.578 -72.11,-2.168 -63.223,29.262" /><path
         id="path26"
         style="fill:#25477f;fill-opacity:1;fill-rule:nonzero;stroke:none"
         d="m 462.395,575.105 c -15.325,0 -25.422,5.801 -33.45,13.879 -10.254,10.325 -12.793,35.684 -7.722,35.684 2.422,0 8.257,-27.605 41.172,-27.605 v -21.958" /><path
         id="path28"
         style="fill:#25477f;fill-opacity:1;fill-rule:nonzero;stroke:none"
         d="m 300.273,575.105 c 15.313,0 25.403,5.801 33.438,13.879 10.242,10.325 12.793,35.684 7.715,35.684 -2.422,0 -8.262,-27.605 -41.153,-27.605 v -21.958" /><path
         id="path30"
         style="fill:#25477f;fill-opacity:1;fill-rule:nonzero;stroke:none"
         d="m 357.051,444.172 c 0,6.766 -2.93,12.898 -7.676,17.398 -4.934,4.668 -33.75,4.77 -38.652,0.246 -4.903,-4.503 -7.942,-10.753 -7.942,-17.644 0,-13.781 12.153,-24.961 27.141,-24.961 14.988,0 27.129,11.18 27.129,24.961" /><path
         id="path32"
         style="fill:#25477f;fill-opacity:1;fill-rule:nonzero;stroke:none"
         d="M 647.18,6.00781 C 645.762,9.09375 598.184,31.75 598.184,73.3398 c 0,31.5152 0,38.0002 0,49.8052 0,11.816 -0.645,39.66 -11.954,53.527 -16.882,20.691 -54.296,18.113 -55.144,15.508 -0.852,-2.617 27.723,-16.742 27.723,-43.071 0,-42.652 0,-66.5504 0,-66.5504 0,0 -2.891,-39.6367 16.972,-60.9102 C 601.152,-5.50781 648.594,2.92188 647.18,6.00781" /><path
         id="path34"
         style="fill:#25477f;fill-opacity:1;fill-rule:nonzero;stroke:none"
         d="m 640,203.32 c -1.414,2.957 -49.004,21.692 -49.004,61.555 0,30.215 0,0.84 0,12.156 0,11.321 -0.637,28.614 -11.953,41.907 -16.875,19.832 -54.297,17.363 -55.137,14.863 -0.859,-2.512 27.727,-16.047 27.727,-41.281 0,-40.887 0,-15.821 0,-15.821 0,0 -2.903,-38 16.961,-58.379 25.371,-26.035 72.824,-17.961 71.406,-15" /><path
         id="path36"
         style="fill:#25477f;fill-opacity:1;fill-rule:nonzero;stroke:none"
         d="m 913.633,308.738 c -6.922,0 -8.242,1.075 -17.168,12.532 l -25.684,32.988 V 325.52 c 0,-7.852 0.535,-8.918 5.86,-10.254 4.129,-1.047 4.238,-1.196 4.238,-1.86 0,-0.261 -0.109,-0.801 -0.254,-1.343 l -0.664,-1.711 c -0.527,-1.329 -0.938,-1.614 -3.32,-1.614 h -31.946 c -2,0 -2.664,0.285 -2.664,1.075 0,0.277 0,0.667 0.149,1.078 l 0.664,1.98 c 0.398,1.348 0.781,1.738 3.172,2.274 4.804,0.929 6.269,3.324 6.269,10.375 v 59.617 c 0,7.976 -0.527,8.926 -5.73,10.246 -4.114,1.074 -4.25,1.199 -4.25,2 0,0.262 0,0.793 0.261,1.203 l 0.539,1.734 c 0.411,1.457 0.938,1.582 3.321,1.582 h 31.933 c 1.993,0 2.676,-0.261 2.676,-1.05 0,-0.403 0,-0.684 -0.156,-1.079 l -0.645,-1.98 c -0.539,-1.484 -0.8,-1.609 -3.203,-2.129 -4.785,-0.937 -6.25,-3.613 -6.25,-10.527 v -26.219 l 35.254,42.984 h 15.723 v -2.793 c 0,-2.254 -0.137,-2.129 -6.133,-5.183 -4.395,-2.278 -5.059,-3.465 -11.836,-11.309 L 885.41,361.316 c 31.016,-37.39 35.938,-42.964 42.336,-48.562 v -4.016 h -14.113" /><path
         id="path38"
         style="fill:#25477f;fill-opacity:1;fill-rule:nonzero;stroke:none"
         d="m 995.059,308.801 c -3.379,0 -3.594,0 -5.235,2.801 l -18.476,31.843 h -10.235 v -20 c 0,-6.961 0.469,-7.793 5.117,-8.953 3.594,-0.929 3.719,-1.035 3.719,-1.621 0,-0.234 -0.125,-0.703 -0.222,-1.16 l -0.586,-1.516 c -0.469,-1.164 -0.821,-1.394 -2.911,-1.394 h -27.546 c -1.75,0 -2.317,0.23 -2.317,0.933 0,0.227 0,0.571 0.098,0.93 l 0.586,1.731 c 0.469,1.289 0.703,1.523 2.793,1.98 4.179,0.813 5.476,2.91 5.476,9.07 v 52.075 c 0,6.746 -0.593,7.793 -5.125,8.953 -3.484,0.918 -3.613,1.035 -3.613,1.738 0,0.352 0,0.691 0.242,1.047 l 0.461,1.512 c 0.352,1.281 0.82,1.398 2.91,1.398 h 34.746 c 9.649,0 14.661,-1.281 18.829,-4.66 4.543,-3.711 6.87,-8.809 6.87,-15.559 0,-10.23 -5.113,-17.781 -15.347,-22.793 13.711,-22.664 20.797,-32.547 25.337,-34.859 v -3.496 z m -14.766,71.707 c -2.207,1.867 -5.352,2.695 -10.566,2.695 h -8.614 v -32.91 h 6.973 c 5.703,0 8.945,1.164 11.98,4.648 3.137,3.489 4.524,8.145 4.524,13.614 0,5.34 -1.387,9.543 -4.297,11.953" /><path
         id="path40"
         style="fill:#25477f;fill-opacity:1;fill-rule:nonzero;stroke:none"
         d="m 1103.13,311.824 -0.59,-1.629 c -0.46,-1.164 -0.94,-1.394 -3.37,-1.394 h -26.28 c -1.5,0 -2.32,0.469 -2.32,1.16 l 0.11,0.477 0.71,1.957 c 0.23,0.828 0.7,1.394 1.74,1.863 3.26,1.621 4.06,2.461 4.06,4.305 0,1.292 -0.24,1.976 -1.62,5.707 l -3.38,8.71 h -29.16 l -4.42,-11.75 c -0.7,-1.867 -0.93,-2.312 -0.93,-3.015 0,-1.731 1.52,-3.125 4.18,-4.192 1.05,-0.339 1.5,-0.8 1.5,-1.269 0,-0.117 -0.1,-0.586 -0.33,-1.152 l -0.47,-1.407 c -0.47,-1.047 -1.04,-1.394 -3.02,-1.394 h -18.37 c -1.85,0 -2.56,0.347 -2.56,1.16 0,0.234 0,0.477 0.13,0.703 l 0.58,1.973 c 0.35,0.82 0.58,1.047 1.38,1.281 0.94,0.23 2.09,0.457 3.03,0.809 3.95,1.289 4.78,2.687 8.03,10.937 l 17.54,44.512 c 1.29,3.144 1.86,5.937 1.86,8.027 0,3.817 -2.2,5.793 -7.55,6.731 -1.29,0.234 -1.85,0.691 -1.85,1.394 0,0.235 0,0.574 0.1,0.801 l 0.58,1.523 c 0.34,1.289 1.04,1.516 3.6,1.516 h 18.37 c 1.73,0 2.21,-0.227 2.79,-1.152 0.35,-0.832 0.35,-0.832 3.26,-8.965 6.96,-19.512 14.99,-39.758 21.02,-54.27 4.08,-9.656 4.18,-10.011 10,-11.633 1.29,-0.23 1.76,-0.585 1.76,-1.394 0,-0.227 0,-0.691 -0.11,-0.93 z m -45.47,60.559 -12.07,-32.195 h 24.04 z" /><path
         id="path42"
         style="fill:#25477f;fill-opacity:1;fill-rule:nonzero;stroke:none"
         d="m 1145.59,388.313 -0.59,-1.75 c -0.47,-1.282 -0.7,-1.395 -2.79,-1.868 -4.18,-0.8 -5.47,-3.132 -5.47,-9.175 v -57.415 c 0,-13.718 -1.85,-19.531 -7.54,-25 -4.43,-4.167 -9.64,-6.269 -16.51,-6.386 v 6.054 c 3.48,1.602 5.57,3.938 6.87,7.997 0.91,3.039 1.03,4.308 1.03,15.355 v 59.395 c 0,6.968 -0.46,7.793 -5,8.953 -3.71,0.918 -3.71,1.035 -3.71,1.738 0,0.234 0.11,0.691 0.23,1.047 l 0.58,1.512 c 0.35,1.281 0.69,1.398 2.9,1.398 h 27.79 c 1.85,0 2.43,-0.227 2.43,-0.93 0,-0.129 -0.12,-0.468 -0.22,-0.925" /><path
         id="path44"
         style="fill:#25477f;fill-opacity:1;fill-rule:nonzero;stroke:none"
         d="m 1199.2,307.414 c -22.78,0 -40.78,18.008 -40.78,40.789 0,24.988 18.83,43.367 44.28,43.367 22.55,0 39.86,-17.675 39.86,-40.8 0,-24.188 -19.06,-43.356 -43.36,-43.356 z m 1.41,76.824 c -14.89,0 -24.77,-13.254 -24.77,-33.468 0,-11.852 3.26,-22.672 8.96,-29.168 3.83,-4.422 9.63,-6.875 16.25,-6.875 6.41,0 11.75,2.324 15.58,7.207 5.58,6.972 8.49,16.984 8.49,28.488 0,20.098 -10.11,33.816 -24.51,33.816" /><path
         id="path46"
         style="fill:#25477f;fill-opacity:1;fill-rule:nonzero;stroke:none"
         d="m 1372.5,388.313 -0.46,-1.75 c -0.34,-0.809 -0.58,-1.172 -1.28,-1.512 l -2.79,-0.813 c -3.24,-1.277 -4.42,-2.55 -6.28,-8.367 l -19.99,-63 c -1.04,-3.359 -1.62,-4.07 -3.25,-4.07 h -6.05 c -2.56,0 -2.56,0.23 -4.06,4.656 l -17.44,52.773 -18.36,-53.593 c -1.04,-3.125 -1.74,-3.836 -3.48,-3.836 h -5.92 c -2.57,0 -2.93,0.711 -4.44,5.457 L 1260,374.48 c -2.21,7.083 -2.91,8.606 -6.74,10.215 -1.29,0.586 -1.87,1.059 -1.87,1.633 0,0.235 0,0.574 0.13,0.93 l 0.69,1.629 c 0.59,1.281 0.59,1.281 3.02,1.281 h 26.63 c 1.73,0 2.43,-0.227 2.43,-0.82 l -0.12,-0.813 -0.69,-1.746 c -0.59,-1.508 -0.81,-1.738 -4.07,-3.125 -2.56,-1.176 -3.96,-2.687 -3.96,-4.543 0,-0.801 0.24,-1.492 0.94,-3.953 l 13.94,-47.656 19.64,59.617 c 0.93,2.922 1.05,3.039 2.69,3.039 h 6.36 c 1.18,0 1.53,-0.363 2.35,-2.91 l 17.89,-59.746 14.65,47.324 c 1.04,3.367 1.04,3.262 1.04,4.285 0,2.676 -2.1,4.875 -6.28,5.93 -1.27,0.457 -1.97,0.926 -1.97,1.512 0,0.226 0,0.468 0.12,0.82 l 0.69,1.726 c 0.46,1.059 0.58,1.059 3.13,1.059 h 19.89 c 1.62,0 2.32,-0.227 2.32,-0.93 0,-0.129 -0.23,-0.468 -0.35,-0.925" /><path
         id="path48"
         style="fill:#25477f;fill-opacity:1;fill-rule:nonzero;stroke:none"
         d="m 1452.26,311.824 -0.59,-1.629 c -0.47,-1.164 -0.92,-1.394 -3.37,-1.394 h -26.28 c -1.49,0 -2.31,0.469 -2.31,1.16 l 0.11,0.477 0.71,1.957 c 0.23,0.828 0.69,1.394 1.74,1.863 3.26,1.621 4.07,2.461 4.07,4.305 0,1.292 -0.25,1.976 -1.63,5.707 l -3.38,8.71 h -29.16 l -4.42,-11.75 c -0.7,-1.867 -0.93,-2.312 -0.93,-3.015 0,-1.731 1.51,-3.125 4.18,-4.192 1.05,-0.339 1.5,-0.8 1.5,-1.269 0,-0.117 -0.1,-0.586 -0.33,-1.152 l -0.47,-1.407 c -0.47,-1.047 -1.05,-1.394 -3.02,-1.394 h -18.37 c -1.85,0 -2.56,0.347 -2.56,1.16 0,0.234 0,0.477 0.13,0.703 l 0.58,1.973 c 0.35,0.82 0.58,1.047 1.4,1.281 0.92,0.23 2.09,0.457 3.01,0.809 3.95,1.289 4.77,2.687 8.03,10.937 l 17.54,44.512 c 1.29,3.144 1.86,5.937 1.86,8.027 0,3.817 -2.2,5.793 -7.55,6.731 -1.29,0.234 -1.87,0.691 -1.87,1.394 0,0.235 0,0.574 0.12,0.801 l 0.58,1.523 c 0.36,1.289 1.06,1.516 3.6,1.516 h 18.37 c 1.74,0 2.21,-0.227 2.79,-1.152 0.35,-0.832 0.35,-0.832 3.26,-8.965 6.98,-19.512 14.98,-39.758 21.04,-54.27 4.06,-9.656 4.17,-10.011 9.97,-11.633 1.29,-0.23 1.77,-0.585 1.77,-1.394 0,-0.227 0,-0.691 -0.12,-0.93 z m -45.46,60.559 -12.08,-32.195 h 24.07 z" /><path
         id="path50"
         style="fill:#25477f;fill-opacity:1;fill-rule:nonzero;stroke:none"
         d="m 1525.92,399.773 -0.65,-1.98 c -0.54,-1.484 -0.81,-1.609 -3.19,-2.129 -4.79,-0.937 -6.28,-3.469 -6.28,-10.527 V 325.52 c 0,-7.981 0.54,-8.918 5.73,-10.254 4.11,-1.047 4.26,-1.047 4.26,-1.86 0,-0.386 0,-0.926 -0.27,-1.343 l -0.53,-1.711 c -0.4,-1.473 -0.94,-1.614 -3.34,-1.614 h -31.93 c -1.99,0 -2.66,0.285 -2.66,1.075 0,0.277 0,0.667 0.14,1.078 l 0.65,1.98 c 0.42,1.348 0.81,1.738 3.2,2.274 4.79,0.929 6.25,3.324 6.25,10.375 v 59.617 c 0,7.976 -0.53,8.926 -5.71,10.246 -3.98,1.074 -4.25,1.199 -4.25,2 0,0.262 0,0.793 0.27,1.203 l 0.5,1.734 c 0.43,1.457 0.94,1.582 3.35,1.582 h 31.93 c 2.01,0 2.66,-0.261 2.66,-1.05 0,-0.266 0,-0.684 -0.13,-1.079" /><path
         id="path52"
         style="fill:#25477f;fill-opacity:1;fill-rule:nonzero;stroke:none"
         d="m 1601.55,308.801 h -57.42 l -2.79,4.883 45.91,68.933 h -24.99 c -5.92,0 -8.6,-1.863 -11.39,-8.015 -1.03,-2.219 -1.62,-3.157 -2.21,-3.157 -0.11,0 -0.59,0.364 -0.81,0.696 l -1.51,1.636 c -0.46,0.586 -0.57,1.059 -0.57,3.012 v 8.836 c 0,3.262 1.16,4.426 5.21,4.426 h 54.63 v -4.426 l -45.67,-69.375 h 30.22 c 6.61,0 10.21,2.102 12.78,7.527 0.92,2.004 1.62,2.805 2.1,2.7 0.1,0 0.23,0 0.34,-0.122 l 1.98,-0.691 c 1.16,-0.469 1.28,-0.598 1.28,-1.992 v -10.567 c 0,-3.371 -1.39,-4.304 -7.09,-4.304" /><path
         id="path54"
         style="fill:#25477f;fill-opacity:1;fill-rule:nonzero;stroke:none"
         d="m 1655.36,307.414 c -8.59,0 -18.47,1.172 -22.42,2.781 -2.56,1.043 -3.14,2.559 -3.14,7.688 v 57.637 c 0,6.382 -0.94,7.898 -5.71,9.07 -3.71,0.918 -3.82,0.918 -3.82,1.621 0,0.234 0.11,0.691 0.23,1.172 l 0.57,1.387 c 0.48,1.171 0.93,1.398 3.36,1.398 h 33.14 c 10.35,0 14.77,-0.93 19.18,-3.84 4.41,-2.91 7.09,-8.008 7.09,-13.582 0,-8.605 -5.58,-15.012 -16.98,-19.074 5.83,-0.703 8.97,-1.621 12.68,-3.953 6.39,-3.938 10.22,-10.801 10.22,-18.364 0,-14.761 -13.24,-23.941 -34.4,-23.941 z m 8.14,73.563 c -2.21,1.738 -4.77,2.336 -9.87,2.336 h -8.03 v -27.661 h 6.17 c 4.88,0 7.55,0.805 10.33,2.778 3.61,2.683 5.82,7.324 5.82,12.324 0,4.312 -1.75,8.141 -4.42,10.223 z m 0.35,-34.852 c -3.25,1.973 -6.28,2.664 -12.08,2.664 h -6.17 v -21.035 c 0,-5.93 0.58,-8.477 2.56,-10.469 1.98,-1.98 4.99,-2.91 9.06,-2.91 9.08,0 14.88,6.277 14.88,16.395 0,6.625 -3.02,12.21 -8.25,15.355" /><path
         id="path56"
         style="fill:#25477f;fill-opacity:1;fill-rule:nonzero;stroke:none"
         d="m 1780.69,311.824 -0.57,-1.629 c -0.47,-1.164 -0.93,-1.394 -3.38,-1.394 h -26.26 c -1.5,0 -2.33,0.469 -2.33,1.16 l 0.12,0.477 0.71,1.957 c 0.23,0.828 0.68,1.394 1.73,1.863 3.25,1.621 4.06,2.461 4.06,4.305 0,1.292 -0.23,1.976 -1.62,5.707 l -3.38,8.71 h -29.16 l -4.41,-11.75 c -0.7,-1.867 -0.93,-2.312 -0.93,-3.015 0,-1.731 1.51,-3.125 4.17,-4.192 1.06,-0.339 1.52,-0.8 1.52,-1.269 0,-0.117 -0.11,-0.586 -0.35,-1.152 l -0.47,-1.407 c -0.46,-1.047 -1.04,-1.394 -3.02,-1.394 h -18.36 c -1.86,0 -2.56,0.347 -2.56,1.16 0,0.234 0,0.477 0.12,0.703 l 0.58,1.973 c 0.36,0.82 0.57,1.047 1.38,1.281 0.94,0.23 2.11,0.457 3.04,0.809 3.95,1.289 4.77,2.687 8,10.937 l 17.57,44.512 c 1.26,3.144 1.86,5.937 1.86,8.027 0,3.817 -2.21,5.793 -7.57,6.731 -1.27,0.234 -1.86,0.691 -1.86,1.394 0,0.235 0,0.574 0.12,0.801 l 0.58,1.523 c 0.36,1.289 1.04,1.516 3.61,1.516 H 1742 c 1.73,0 2.21,-0.227 2.79,-1.152 0.35,-0.832 0.35,-0.832 3.25,-8.965 6.97,-19.512 14.99,-39.758 21.03,-54.27 4.07,-9.656 4.19,-10.011 9.99,-11.633 1.29,-0.23 1.75,-0.585 1.75,-1.394 0,-0.227 0,-0.691 -0.12,-0.93 z m -45.44,60.559 -12.09,-32.195 h 24.06 z" /><path
         id="path58"
         style="fill:#25477f;fill-opacity:1;fill-rule:nonzero;stroke:none"
         d="m 918.563,162.688 c -9.43,-6.379 -20.614,-9.329 -35.125,-9.329 -10.782,0 -22.891,1.336 -26.883,2.95 -3.196,1.328 -3.723,2.648 -3.723,11.308 v 63.738 c 0,5.325 -0.547,7.192 -2.402,8.52 -1.055,0.918 -1.59,1.055 -6.914,2.527 -0.938,0.125 -1.465,0.528 -1.465,1.203 0,0.25 0,0.77 0.273,1.2 l 0.52,1.718 c 0.41,1.321 1.074,1.602 3.867,1.602 h 39.383 c 16.777,0 27.949,-2.402 36.328,-7.578 11.191,-6.934 17.051,-19.051 17.051,-35.418 0,-18.352 -7.188,-33.266 -20.91,-42.441 z m -13.29,73.464 c -5.722,3.047 -11.191,3.985 -23.828,3.985 h -10.117 v -60.293 c 0,-9.832 0.938,-13.047 4.387,-15.418 3.074,-2.129 7.195,-3.071 12.781,-3.071 19.949,0 31.406,14.758 31.406,40.715 0,17.571 -4.785,28.75 -14.629,34.082" /><path
         id="path60"
         style="fill:#25477f;fill-opacity:1;fill-rule:nonzero;stroke:none"
         d="m 992.305,153.594 c -22.785,0 -40.789,18.015 -40.789,40.793 0,24.988 18.816,43.359 44.277,43.359 22.557,0 39.857,-17.668 39.857,-40.812 0,-24.168 -19.05,-43.34 -43.345,-43.34 z m 1.406,76.816 c -14.883,0 -24.766,-13.242 -24.766,-33.476 0,-11.844 3.25,-22.664 8.946,-29.168 3.847,-4.414 9.648,-6.848 16.269,-6.848 6.4,0 11.74,2.324 15.59,7.207 5.56,6.953 8.47,16.965 8.47,28.477 0,20.097 -10.11,33.808 -24.509,33.808" /><path
         id="path62"
         style="fill:#25477f;fill-opacity:1;fill-rule:nonzero;stroke:none"
         d="m 1107.4,154.98 c -3.36,0 -3.59,0 -5.21,2.801 l -18.49,31.84 h -10.22 v -19.992 c 0,-6.961 0.47,-7.774 5.11,-8.953 3.62,-0.93 3.71,-1.055 3.71,-1.621 0,-0.227 -0.09,-0.696 -0.23,-1.157 l -0.57,-1.519 c -0.46,-1.152 -0.82,-1.399 -2.91,-1.399 h -27.55 c -1.74,0 -2.33,0.247 -2.33,0.926 0,0.258 0,0.59 0.12,0.918 l 0.58,1.77 c 0.47,1.269 0.7,1.496 2.81,1.965 4.17,0.82 5.45,2.91 5.45,9.07 v 52.07 c 0,6.746 -0.58,7.781 -5.11,8.946 -3.48,0.918 -3.6,1.043 -3.6,1.757 0,0.325 0,0.684 0.22,1.036 l 0.47,1.511 c 0.35,1.281 0.82,1.379 2.91,1.379 h 34.74 c 9.66,0 14.64,-1.269 18.83,-4.64 4.53,-3.708 6.88,-8.836 6.88,-15.575 0,-10.215 -5.13,-17.761 -15.34,-22.761 13.7,-22.688 20.78,-32.559 25.32,-34.883 v -3.489 z m -14.74,71.708 c -2.22,1.867 -5.36,2.675 -10.59,2.675 h -8.59 v -32.867 h 6.97 c 5.7,0 8.94,1.149 11.97,4.637 3.14,3.488 4.54,8.125 4.54,13.594 0,5.351 -1.4,9.531 -4.3,11.961" /><path
         id="path64"
         style="fill:#25477f;fill-opacity:1;fill-rule:nonzero;stroke:none"
         d="m 1212.5,158 -0.59,-1.621 c -0.46,-1.152 -0.93,-1.399 -3.37,-1.399 h -26.25 c -1.54,0 -2.35,0.469 -2.35,1.184 l 0.12,0.438 0.69,1.992 c 0.25,0.808 0.71,1.386 1.76,1.855 3.25,1.621 4.07,2.434 4.07,4.285 0,1.313 -0.25,1.996 -1.64,5.704 l -3.38,8.71 h -29.16 l -4.42,-11.714 c -0.69,-1.875 -0.93,-2.344 -0.93,-3.032 0,-1.734 1.5,-3.164 4.18,-4.195 1.06,-0.344 1.52,-0.805 1.52,-1.289 0,-0.09 -0.11,-0.559 -0.35,-1.137 l -0.47,-1.402 c -0.47,-1.047 -1.04,-1.399 -3.02,-1.399 h -18.36 c -1.87,0 -2.56,0.352 -2.56,1.184 0,0.215 0,0.438 0.12,0.66 l 0.57,2.004 c 0.36,0.793 0.61,1.035 1.42,1.262 0.92,0.23 2.07,0.469 3.01,0.828 3.94,1.262 4.76,2.668 8,10.93 l 17.56,44.5 c 1.28,3.156 1.86,5.937 1.86,8.027 0,3.828 -2.19,5.801 -7.54,6.73 -1.29,0.235 -1.88,0.692 -1.88,1.407 0,0.215 0,0.574 0.12,0.82 l 0.59,1.492 c 0.35,1.281 1.05,1.504 3.59,1.504 h 18.38 c 1.74,0 2.19,-0.223 2.77,-1.152 0.35,-0.813 0.35,-0.813 3.26,-8.938 6.98,-19.539 15,-39.754 21.04,-54.297 4.07,-9.628 4.18,-9.988 10.01,-11.621 1.28,-0.23 1.75,-0.574 1.75,-1.402 0,-0.219 0,-0.676 -0.12,-0.918 z m -45.45,60.555 -12.09,-32.188 H 1179 Z" /><path
         id="path66"
         style="fill:#25477f;fill-opacity:1;fill-rule:nonzero;stroke:none"
         d="m 1283.48,161.73 c -8.27,-5.566 -18.02,-8.136 -30.7,-8.136 -9.4,0 -20,1.152 -23.47,2.57 -2.79,1.149 -3.26,2.305 -3.26,9.883 v 55.652 c 0,4.641 -0.46,6.281 -2.07,7.442 -0.93,0.808 -1.42,0.925 -6.05,2.199 -0.84,0.125 -1.29,0.457 -1.29,1.062 0,0.215 0,0.684 0.24,1.036 l 0.46,1.511 c 0.35,1.156 0.94,1.379 3.37,1.379 h 34.41 c 14.65,0 24.41,-2.078 31.72,-6.621 9.76,-6.035 14.88,-16.621 14.88,-30.906 0,-16.028 -6.28,-29.055 -18.24,-37.071 z m -11.62,64.161 c -5,2.664 -9.77,3.472 -20.81,3.472 h -8.84 v -52.644 c 0,-8.594 0.82,-11.387 3.83,-13.477 2.67,-1.863 6.28,-2.683 11.17,-2.683 17.43,0 27.42,12.898 27.42,35.574 0,15.332 -4.18,25.097 -12.77,29.758" /><path
         id="path68"
         style="fill:#25477f;fill-opacity:1;fill-rule:nonzero;stroke:none"
         d="m 1390.06,166.965 -3.6,-7.793 c -1.05,-2.207 -1.52,-2.57 -3.61,-3.379 -4.06,-1.516 -10.58,-2.199 -16.97,-2.199 -13.36,0 -23.83,3.144 -32.2,9.648 -9.99,7.781 -15.57,19.172 -15.57,32.18 0,24.168 19.06,42.324 44.64,42.324 8.83,0 18.36,-1.992 25.09,-5.234 2.1,-1.047 2.43,-1.633 2.43,-3.594 v -6.523 c 0,-1.641 -0.09,-1.868 -1.13,-2.676 l -2.23,-1.75 c -0.35,-0.223 -0.69,-0.332 -0.93,-0.332 -0.45,0 -1.27,0.683 -3.25,3.254 -5.23,6.843 -10.92,9.519 -20.11,9.519 -16.86,0 -27.07,-12.09 -27.07,-32.539 0,-21.621 12.09,-36.016 30.33,-36.016 7.67,0 12.44,1.961 20.1,7.891 1.17,0.918 1.73,1.184 2.44,1.184 1.17,0 2.46,-1.184 2.46,-2.114 0,-0.339 -0.13,-0.23 -0.82,-1.851" /><path
         id="path70"
         style="fill:#25477f;fill-opacity:1;fill-rule:nonzero;stroke:none"
         d="m 1442.06,153.594 c -22.78,0 -40.81,18.015 -40.81,40.793 0,24.988 18.83,43.359 44.3,43.359 22.52,0 39.85,-17.668 39.85,-40.812 0,-24.168 -19.04,-43.34 -43.34,-43.34 z m 1.39,76.816 c -14.88,0 -24.76,-13.242 -24.76,-33.476 0,-11.844 3.25,-22.664 8.95,-29.168 3.84,-4.414 9.66,-6.848 16.28,-6.848 6.38,0 11.74,2.324 15.56,7.207 5.59,6.953 8.5,16.965 8.5,28.477 0,20.097 -10.11,33.808 -24.53,33.808 z m 11.28,19.981 -18.02,-10.203 -3.37,3.816 14.99,14.297 c 5.82,5.586 6.63,6.054 9.3,6.054 2.8,0 5.23,-2.558 5.23,-5.46 0,-2.79 -2.32,-5.243 -8.13,-8.504" /><path
         id="path72"
         style="fill:#25477f;fill-opacity:1;fill-rule:nonzero;stroke:none"
         d="m 1612.36,234.48 -0.46,-1.753 c -0.34,-0.813 -0.58,-1.164 -1.27,-1.504 l -2.79,-0.813 c -3.26,-1.269 -4.42,-2.558 -6.29,-8.359 l -19.99,-62.996 c -1.04,-3.379 -1.62,-4.075 -3.25,-4.075 h -6.04 c -2.56,0 -2.56,0.247 -4.08,4.641 l -17.42,52.781 -18.36,-53.574 c -1.05,-3.152 -1.76,-3.848 -3.48,-3.848 H 1523 c -2.56,0 -2.91,0.696 -4.43,5.469 l -18.69,60.203 c -2.21,7.082 -2.92,8.606 -6.77,10.227 -1.27,0.586 -1.85,1.035 -1.85,1.633 0,0.215 0,0.574 0.13,0.926 l 0.69,1.621 c 0.59,1.269 0.59,1.269 3.02,1.269 h 26.63 c 1.73,0 2.43,-0.223 2.43,-0.801 l -0.13,-0.82 -0.68,-1.738 c -0.6,-1.504 -0.82,-1.746 -4.08,-3.133 -2.55,-1.152 -3.95,-2.68 -3.95,-4.531 0,-0.813 0.24,-1.516 0.92,-3.957 l 13.96,-47.649 19.66,59.633 c 0.91,2.898 1.03,2.996 2.65,2.996 h 6.41 c 1.15,0 1.5,-0.344 2.3,-2.89 l 17.92,-59.739 14.63,47.309 c 1.05,3.367 1.05,3.25 1.05,4.297 0,2.675 -2.09,4.871 -6.27,5.918 -1.29,0.465 -1.98,0.933 -1.98,1.504 0,0.242 0,0.464 0.1,0.828 l 0.71,1.738 c 0.47,1.035 0.58,1.035 3.14,1.035 h 19.88 c 1.62,0 2.33,-0.223 2.33,-0.918 0,-0.117 -0.24,-0.461 -0.37,-0.93" /><path
         id="path74"
         style="fill:#25477f;fill-opacity:1;fill-rule:nonzero;stroke:none"
         d="m 884.434,44.3164 c -0.918,0 -2.657,0.1367 -4.649,0.2734 l -1.484,3.0665 c -0.391,0.9296 -0.52,1.0546 -0.52,1.3203 0,0.9257 0,0.789 3.332,1.2109 9.981,1.0508 16.895,9.707 16.895,20.7305 0,12.4023 -6.504,18.9258 -18.621,18.9258 h -8.254 V 21.3086 c 0,-8.0078 0.527,-8.9336 5.722,-10.2539 4.258,-1.06642 4.258,-1.06642 4.258,-1.87501 0,-0.37891 0,-0.92578 -0.273,-1.33594 L 880.32,6.125 c -0.398,-1.33984 -0.933,-1.59375 -3.328,-1.59375 h -31.941 c -1.985,0 -2.668,0.25391 -2.668,1.06641 0,0.3789 0,0.65234 0.137,1.05078 l 0.664,2.0039 c 0.539,1.46486 0.8,1.73826 3.203,2.26566 4.785,0.9375 6.23,3.4453 6.23,10.3906 V 80.918 c 0,8.6523 -0.117,8.7695 -8.633,11.0547 -0.918,0.2539 -1.328,0.6445 -1.328,1.1796 0,0.4102 0,0.8047 0.117,1.1954 l 0.672,1.7461 c 0.539,1.4648 0.93,1.5937 3.332,1.5937 h 37.395 c 11.308,0 17.969,-1.4766 23.543,-5.3242 6.933,-4.6485 10.137,-10.7813 10.137,-19.4258 0,-17.0586 -13.45,-28.6211 -33.418,-28.6211" /><path
         id="path76"
         style="fill:#25477f;fill-opacity:1;fill-rule:nonzero;stroke:none"
         d="m 970.246,3.18359 c -22.785,0 -40.793,18.00001 -40.793,40.79301 0,24.9882 18.828,43.3476 44.277,43.3476 22.547,0 39.86,-17.6445 39.86,-40.8008 0,-24.1679 -19.059,-43.33981 -43.344,-43.33981 z m 1.395,76.83591 c -14.883,0 -24.754,-13.25 -24.754,-33.4961 0,-11.8437 3.25,-22.6562 8.933,-29.1601 3.848,-4.4141 9.649,-6.8633 16.289,-6.8633 6.387,0 11.739,2.332 15.567,7.1953 5.586,6.9844 8.476,16.9844 8.476,28.4883 0,20.1172 -10.097,33.8359 -24.511,33.8359" /><path
         id="path78"
         style="fill:#25477f;fill-opacity:1;fill-rule:nonzero;stroke:none"
         d="m 1092.68,11.3281 c -8.25,-5.59763 -18.01,-8.14451 -30.69,-8.14451 -9.41,0 -19.99,1.15235 -23.47,2.54688 -2.8,1.16406 -3.25,2.33594 -3.25,9.87503 v 55.6953 c 0,4.6445 -0.48,6.2773 -2.11,7.4297 -0.93,0.8203 -1.38,0.9492 -6.03,2.207 -0.82,0.125 -1.29,0.4688 -1.29,1.0547 0,0.2266 0,0.6953 0.23,1.0469 l 0.47,1.5117 c 0.35,1.1523 0.93,1.3867 3.36,1.3867 h 34.42 c 14.64,0 24.4,-2.082 31.73,-6.6289 9.76,-6.0469 14.88,-16.6133 14.88,-30.918 0,-16.0351 -6.28,-29.0547 -18.25,-37.0625 z m -11.63,64.1407 c -5,2.6835 -9.76,3.4882 -20.8,3.4882 h -8.83 V 26.3164 c 0,-8.6211 0.81,-11.3945 3.83,-13.4844 2.68,-1.8632 6.27,-2.6757 11.16,-2.6757 17.43,0 27.43,12.9023 27.43,35.5664 0,15.3398 -4.19,25.1093 -12.79,29.7461" /><path
         id="path80"
         style="fill:#25477f;fill-opacity:1;fill-rule:nonzero;stroke:none"
         d="m 1198.03,7.59766 -0.59,-1.6211 c -0.47,-1.17187 -0.92,-1.39453 -3.37,-1.39453 h -26.26 c -1.51,0 -2.34,0.46875 -2.34,1.14844 l 0.12,0.46875 0.71,1.98437 c 0.22,0.8125 0.68,1.38672 1.73,1.85551 3.26,1.6406 4.07,2.4414 4.07,4.3086 0,1.2578 -0.22,1.9687 -1.63,5.6796 l -3.36,8.7227 h -29.18 l -4.43,-11.7383 c -0.69,-1.8672 -0.92,-2.3242 -0.92,-3.0273 0,-1.7266 1.51,-3.125 4.18,-4.1719 1.05,-0.34766 1.5,-0.81641 1.5,-1.27734 0,-0.11719 -0.1,-0.59766 -0.33,-1.17969 l -0.47,-1.37891 c -0.47,-1.05468 -1.04,-1.39453 -3.02,-1.39453 h -18.35 c -1.87,0 -2.57,0.33985 -2.57,1.14844 0,0.24609 0,0.46875 0.11,0.70703 l 0.59,1.98047 c 0.33,0.8125 0.57,1.04687 1.39,1.27734 0.93,0.23828 2.09,0.46099 3.02,0.80469 3.96,1.2773 4.76,2.6836 8.02,10.9375 l 17.55,44.4922 c 1.27,3.1641 1.87,5.9453 1.87,8.0273 0,3.8477 -2.22,5.8282 -7.57,6.7461 -1.27,0.2344 -1.85,0.7032 -1.85,1.3985 0,0.2226 0,0.5859 0.11,0.8281 l 0.6,1.5039 c 0.34,1.2695 1.04,1.5039 3.6,1.5039 h 18.36 c 1.73,0 2.2,-0.2344 2.78,-1.1523 0.35,-0.8204 0.35,-0.8204 3.25,-8.9649 6.99,-19.5312 15,-39.7461 21.06,-54.2773 4.05,-9.6407 4.16,-9.9883 9.98,-11.60941 1.29,-0.23828 1.75,-0.58593 1.75,-1.39843 0,-0.22266 0,-0.71485 -0.11,-0.9375 z m -45.45,60.56644 -12.09,-32.1953 h 24.06 z" /><path
         id="path82"
         style="fill:#25477f;fill-opacity:1;fill-rule:nonzero;stroke:none"
         d="m 1266.99,83.3906 -2.2,-3.4961 c -1.04,-1.625 -1.74,-1.7422 -6.16,-1.7422 h -20.21 V 19.2305 c 0,-6.9727 0.45,-7.8047 4.99,-8.9571 3.48,-0.92574 3.71,-0.92574 3.71,-1.62887 0,-0.33203 0,-0.82422 -0.23,-1.16406 l -0.46,-1.50391 c -0.36,-1.17187 -0.82,-1.39453 -2.89,-1.39453 h -27.91 c -1.74,0 -2.33,0.22266 -2.33,0.9375 0,0.33203 0,0.56641 0.12,0.91797 l 0.58,1.74609 c 0.35,1.16407 0.7,1.51172 2.78,1.97271 4.19,0.8125 5.47,3.0273 5.47,9.0742 v 58.9218 h -24.99 c -3.14,0 -4.64,0.4415 -4.64,1.6329 0,0.2343 0,0.5742 0.57,1.5039 l 4.19,7.3242 c 0.35,0.8203 0.58,0.9297 0.92,0.9297 0.24,0 0.47,-0.1094 0.82,-0.2344 5.47,-3.0313 7.56,-3.3711 19.77,-3.3711 h 44.39 c 3.61,0 4.42,-0.1055 4.42,-1.0352 0,-0.3515 -0.24,-0.9375 -0.71,-1.5117" /><path
         id="path84"
         style="fill:#25477f;fill-opacity:1;fill-rule:nonzero;stroke:none"
         d="m 1341.27,4.58203 c -6.04,0 -7.2,0.9375 -15,10.91797 l -22.42,28.8359 V 19.2305 c 0,-6.8672 0.47,-7.8047 5.11,-8.9571 3.62,-0.92574 3.72,-1.04293 3.72,-1.62887 0,-0.22656 -0.1,-0.70703 -0.23,-1.16406 l -0.59,-1.50391 c -0.45,-1.17187 -0.81,-1.39453 -2.9,-1.39453 h -27.9 c -1.74,0 -2.33,0.22266 -2.33,0.9375 0,0.21094 0,0.56641 0.13,0.91797 l 0.57,1.74609 c 0.36,1.16407 0.71,1.51172 2.8,1.97271 4.19,0.8125 5.47,2.9101 5.47,9.0742 v 52.0703 c 0,6.9687 -0.45,7.7617 -5,8.9336 -3.62,0.9375 -3.72,1.0547 -3.72,1.7578 0,0.2266 0,0.6953 0.24,1.0469 l 0.45,1.5117 c 0.35,1.2812 0.82,1.3867 2.91,1.3867 h 27.89 c 1.74,0 2.33,-0.2344 2.33,-0.9258 0,-0.3554 0,-0.5781 -0.12,-0.9297 l -0.58,-1.7578 c -0.46,-1.2617 -0.69,-1.3867 -2.8,-1.8554 -4.16,-0.7891 -5.45,-3.1329 -5.45,-9.168 V 48.3906 l 30.8,37.5469 h 13.73 v -2.4414 c 0,-1.9727 -0.14,-1.8555 -5.35,-4.5391 -3.84,-1.9843 -4.44,-3.0117 -10.35,-9.8632 l -16.06,-18.6055 c 27.1,-32.6563 31.41,-37.5391 36.97,-42.42189 V 4.58203 h -12.32" /><path
         id="path86"
         style="fill:#25477f;fill-opacity:1;fill-rule:nonzero;stroke:none"
         d="m 1400.55,3.18359 c -22.78,0 -40.79,18.00001 -40.79,40.79301 0,24.9882 18.83,43.3476 44.27,43.3476 22.54,0 39.88,-17.6445 39.88,-40.8008 0,-24.1679 -19.07,-43.33981 -43.36,-43.33981 z m 1.38,76.83591 c -14.86,0 -24.74,-13.25 -24.74,-33.4961 0,-11.8437 3.25,-22.6562 8.94,-29.1601 3.83,-4.4141 9.65,-6.8633 16.27,-6.8633 6.41,0 11.74,2.332 15.59,7.1953 5.56,6.9844 8.47,16.9844 8.47,28.4883 0,20.1172 -10.11,33.8359 -24.53,33.8359" /><path
         id="path88"
         style="fill:#25477f;fill-opacity:1;fill-rule:nonzero;stroke:none"
         d="m 1570.85,84.082 -0.45,-1.7578 c -0.35,-0.8008 -0.59,-1.1523 -1.28,-1.5039 l -2.78,-0.8008 c -3.27,-1.289 -4.41,-2.5781 -6.28,-8.3867 L 1540.07,8.64453 c -1.05,-3.36328 -1.64,-4.0625 -3.26,-4.0625 h -6.06 c -2.55,0 -2.55,0.22266 -4.06,4.64844 L 1509.27,62.0039 1490.89,8.41797 c -1.03,-3.13672 -1.74,-3.83594 -3.48,-3.83594 h -5.91 c -2.56,0 -2.91,0.69922 -4.43,5.45707 l -18.72,60.2148 c -2.21,7.082 -2.91,8.5859 -6.74,10.2149 -1.29,0.5937 -1.85,1.0546 -1.85,1.6328 0,0.2226 0,0.5859 0.12,0.9375 l 0.69,1.6172 c 0.57,1.2812 0.57,1.2812 3.02,1.2812 h 26.62 c 1.73,0 2.43,-0.2344 2.43,-0.8203 l -0.11,-0.8086 -0.69,-1.7422 c -0.59,-1.5039 -0.82,-1.7461 -4.06,-3.1406 -2.57,-1.1563 -3.97,-2.668 -3.97,-4.5313 0,-0.8007 0.22,-1.5039 0.92,-3.9492 l 13.96,-47.6523 19.65,59.6367 c 0.93,2.9023 1.04,3.0078 2.67,3.0078 h 6.39 c 1.15,0 1.52,-0.3516 2.33,-2.8984 l 17.89,-59.7461 14.64,47.2929 c 1.05,3.3711 1.05,3.2618 1.05,4.3086 0,2.6836 -2.09,4.8907 -6.27,5.9258 -1.28,0.4688 -1.98,0.9375 -1.98,1.5039 0,0.2422 0,0.4688 0.11,0.8281 l 0.69,1.75 c 0.48,1.0352 0.6,1.0352 3.16,1.0352 h 19.86 c 1.64,0 2.32,-0.2344 2.32,-0.9258 0,-0.1094 -0.22,-0.4609 -0.35,-0.9297" /><path
         id="path90"
         style="fill:#25477f;fill-opacity:1;fill-rule:nonzero;stroke:none"
         d="m 1649.09,84.3086 -0.46,-1.1563 c -0.24,-0.9335 -0.59,-1.5117 -1.06,-1.8632 -0.23,-0.1172 -2.21,-0.9297 -2.78,-1.1524 -2.79,-1.1797 -4.29,-2.8008 -7.43,-8.6054 l -14.77,-26.7344 c -3.5,-6.2813 -4.07,-8.2656 -4.07,-13.9375 V 19.2305 c 0,-7.5508 0,-7.5508 7.55,-9.66019 0.82,-0.22265 1.16,-0.46093 1.16,-1.03515 0,-0.22266 0,-0.71485 -0.11,-1.05469 l -0.59,-1.50391 c -0.46,-1.17187 -0.8,-1.39453 -2.9,-1.39453 h -27.89 c -1.74,0 -2.45,0.22266 -2.45,0.9375 0,0.33203 0,0.56641 0.14,0.91797 l 0.68,1.74609 c 0.47,1.16407 0.7,1.51172 2.79,1.97271 4.19,0.8125 5.46,2.9101 5.46,9.0742 v 17.4179 l -16.39,32.5391 c -1.04,2.2188 -2.09,4.543 -3.36,6.7578 -1.75,2.8945 -2.09,3.2539 -6.29,5.2266 -0.46,0.2344 -0.8,0.5859 -0.8,0.9297 0,0.2226 0.12,0.6914 0.23,1.0507 l 0.7,1.8594 c 0.35,0.8203 0.81,0.9258 3.72,0.9258 h 22.77 c 2.57,0 3.02,-0.1055 3.02,-1.0352 0,-0.246 0,-0.3515 -0.1,-0.4687 l -0.48,-1.8672 c -0.24,-0.7109 -0.46,-1.043 -1.04,-1.5039 -0.59,-0.3594 -1.28,-0.8281 -1.98,-1.168 -1.51,-0.9375 -2.44,-2.3164 -2.44,-3.7109 0,-1.5156 0.58,-3.1563 1.86,-5.8008 l 12.79,-26.4062 15.68,28.9609 c 1.16,2.0898 1.75,3.4688 1.75,4.5039 0,1.5156 -1.27,2.4531 -4.53,3.8477 -0.8,0.3515 -1.29,0.7031 -1.29,1.0351 0,0.2422 0,0.6055 0.13,0.8281 l 0.69,1.75 c 0.36,0.9297 0.7,1.0352 3.03,1.0352 h 16.86 c 1.96,0 2.43,-0.2344 2.32,-0.9258 l -0.12,-0.7031" /><path
         id="path92"
         style="fill:#25477f;fill-opacity:1;fill-rule:nonzero;stroke:none"
         d="m 1722.45,16.543 -3.59,-7.77347 c -1.06,-2.21484 -1.5,-2.57031 -3.61,-3.3789 -4.08,-1.51172 -10.57,-2.20704 -16.98,-2.20704 -13.36,0 -23.81,3.13282 -32.18,9.64841 -10,7.7735 -15.59,19.1797 -15.59,32.1953 0,24.1602 19.06,42.2969 44.64,42.2969 8.84,0 18.37,-1.9726 25.11,-5.2226 2.09,-1.0391 2.44,-1.6328 2.44,-3.586 v -6.5117 c 0,-1.6211 -0.12,-1.875 -1.17,-2.6875 l -2.21,-1.7383 c -0.35,-0.2343 -0.68,-0.3515 -0.93,-0.3515 -0.46,0 -1.28,0.6953 -3.24,3.2422 -5.23,6.8671 -10.93,9.5507 -20.11,9.5507 -16.85,0 -27.08,-12.0976 -27.08,-32.5586 0,-21.6093 12.08,-36.0351 30.32,-36.0351 7.69,0 12.44,1.9922 20.11,7.9101 1.16,0.918 1.75,1.1524 2.45,1.1524 1.16,0 2.44,-1.1524 2.44,-2.082 0,-0.3399 -0.12,-0.2227 -0.82,-1.8633" /><path
         id="path94"
         style="fill:#25477f;fill-opacity:1;fill-rule:nonzero;stroke:none"
         d="m 1821.84,84.082 -0.58,-1.7578 c -0.47,-1.2617 -0.7,-1.3867 -2.81,-1.8554 -4.16,-0.7891 -5.45,-3.0274 -5.45,-9.168 V 19.2305 c 0,-6.9727 0.35,-7.8047 4.88,-8.9571 3.62,-0.92574 3.83,-0.92574 3.83,-1.73824 0,-0.22266 0,-0.71485 -0.12,-1.05469 l -0.57,-1.50391 c -0.46,-1.17187 -0.93,-1.39453 -3.02,-1.39453 h -27.77 c -1.75,0 -2.46,0.22266 -2.46,0.9375 0,0.21094 0,0.56641 0.12,0.91797 l 0.7,1.74609 c 0.46,1.16407 0.7,1.51172 2.79,1.97271 4.31,0.8125 5.47,2.9101 5.47,9.0742 v 26.2578 h -34.17 V 19.2305 c 0,-6.9727 0.46,-7.8047 4.99,-8.9571 3.48,-0.92574 3.72,-0.92574 3.72,-1.62887 0,-0.33203 0,-0.82422 -0.24,-1.16406 l -0.46,-1.50391 c -0.35,-1.28906 -0.8,-1.39453 -2.91,-1.39453 h -27.87 c -1.76,0 -2.34,0.22266 -2.34,0.9375 0,0.33203 0,0.56641 0.12,0.91797 l 0.58,1.74609 c 0.36,1.16407 0.69,1.51172 2.79,1.97271 4.19,0.8125 5.47,2.9101 5.47,9.0742 v 52.0703 c 0,6.9687 -0.48,7.7617 -5,8.9336 -3.49,0.9375 -3.73,1.0547 -3.73,1.7578 0,0.332 0,0.6953 0.24,1.0469 l 0.47,1.5117 c 0.35,1.2812 0.81,1.3867 2.91,1.3867 h 27.87 c 1.76,0 2.34,-0.2344 2.34,-0.9258 0,-0.2265 0,-0.5781 -0.11,-0.9297 l -0.59,-1.7578 c -0.46,-1.2617 -0.7,-1.3867 -2.79,-1.8554 -4.19,-0.7891 -5.46,-3.0274 -5.46,-9.168 v -18.711 h 34.17 v 18.711 c 0,6.9687 -0.46,7.7617 -5,8.9336 -3.62,0.9375 -3.83,0.9375 -3.83,1.7578 0,0.2266 0,0.6953 0.21,1.0469 l 0.6,1.5117 c 0.46,1.2812 0.81,1.3867 2.9,1.3867 h 27.89 c 1.75,0 2.32,-0.2344 2.32,-0.9258 0,-0.2265 0,-0.5781 -0.1,-0.9297" /><path
         id="path96"
         style="fill:#25477f;fill-opacity:1;fill-rule:nonzero;stroke:none"
         d="m 684.863,9.43359 c 10.742,4.02341 20.313,8.71871 20.313,8.71871 121.023,63.2032 -18.672,210.5857 -18.672,356.1447 0,237.375 404.336,348.144 996.436,112.266 0,0 105.7,-36.243 101.35,-44.09 -7.33,-13.176 -373.49,116.289 -600.46,129.05 -172.54,9.7 -291.935,-13.117 -371.271,-64.668 C 750.352,466.426 716.992,402.449 734.492,306.328 770.879,169.16 820.449,102.305 777.793,44.1406 741.98,-4.6875 687.656,-0.535156 678.594,4.28906 c -3.36,1.78516 2.551,3.75 6.269,5.14453" /></g></g></svg>